<svg width="623" height="312" viewBox="0 0 623 312" fill="none" xmlns="http://www.w3.org/2000/svg">
<path d="M506.641 41.0389C518.068 40.2697 529.66 39.995 540.922 42.1926C547.405 43.5111 554.217 45.7086 558.832 50.708C561.799 53.8395 563.117 58.3444 562.678 62.6296C562.238 68.508 559.436 73.837 556.415 78.7265C554.932 81.2537 552.899 83.4512 551.58 86.0883C548.119 85.3191 544.603 84.495 541.142 83.671C539.109 83.1765 537.022 82.792 534.989 83.1765C531.473 83.7808 528.231 85.2642 524.715 85.9784C523.672 86.1981 522.738 85.7037 521.749 85.3741C524.056 81.1987 525.21 76.1444 523.836 71.4747C522.353 66.9148 518.178 63.8383 513.893 62.1352C506.036 59.1136 497.521 58.7839 489.225 58.7839C466.701 59.2234 444.561 63.8383 422.75 69.2222C417.915 70.4308 413.136 71.6944 408.411 73.1228C405.005 72.7932 401.324 72.1339 398.193 73.837C395.006 75.5401 391.985 77.5179 388.853 79.3308C385.007 79.7704 381.436 81.3636 377.756 82.4623C369.515 85.2642 361.274 87.9562 353.198 91.2525C351.385 88.121 350.067 84.6599 347.43 82.0778C388.798 66.6401 431.046 53.1253 474.557 45.2142C485.16 43.3463 495.873 41.8629 506.641 41.0389Z" fill="#E16393" stroke="#E16393" stroke-width="0.219753" stroke-miterlimit="10"/>
<path d="M131.193 66.0907C133.006 64.058 135.972 64.1679 138.444 64.4426C141.576 64.8272 143.334 67.7938 144.817 70.266C146.74 73.7272 149.377 76.8037 150.476 80.6494C151.245 83.2315 152.069 85.8136 153.278 88.2309C152.893 94.4938 152.454 100.702 152.124 106.965C151.19 111.525 151.41 116.249 150.97 120.864C150.586 124.71 150.201 128.556 150.311 132.401C153.607 128.116 156.19 123.336 158.002 118.227C159.706 114.491 161.024 110.591 161.958 106.58C162.233 102.24 161.848 97.8451 162.123 93.5049C162.343 90.7031 164.65 88.8352 166.848 87.4617C171.792 84.1654 176.736 80.9241 181.626 77.5179C185.362 74.4414 188.768 70.9802 192.833 68.3981C195.415 66.0907 199.316 65.6512 202.448 67.0796C205.14 68.3432 207.777 69.7716 210.414 71.0352C213.051 72.2438 215.852 74.0568 216.402 77.1333C216.786 79.7704 216.402 82.4623 216.237 85.1543C218.984 86.4179 221.896 88.2858 222.72 91.3623C224.588 94.8784 223.764 98.9438 224.643 102.625C224.972 102.789 225.522 103.119 225.796 103.284C225.686 100.537 225.412 97.6253 226.565 95.0432C228.378 90.5383 229.312 85.5389 232.444 81.6383C234.971 78.2321 236.674 73.837 240.685 71.8043C243.926 70.1012 247.167 68.3432 250.409 66.6401C253.705 64.7173 257.606 65.7611 261.231 65.4864C266.176 65.0469 270.736 67.2994 275.515 68.0136C280.68 68.7827 285.899 69.4969 291.063 70.266C294.689 70.7055 296.392 74.3315 299.084 76.3092C301.721 77.408 304.578 77.6827 307.16 78.7265C308.698 79.4957 309.797 80.8691 310.896 82.1876C313.643 85.7586 316.499 89.2747 319.081 93.0105C319.741 93.9444 320.4 94.8784 321.114 95.7574C321.719 94.4938 322.323 93.1753 322.982 91.9667C324.74 89.1099 326.388 86.308 328.366 83.616C329.52 82.0778 331.168 80.7592 333.146 80.5944C335.893 80.4296 338.694 80.5944 341.441 80.5395C343.474 80.4846 345.891 80.5395 347.43 82.0778C350.067 84.6599 351.385 88.121 353.198 91.2525C355.451 95.7574 358.912 99.4383 361.823 103.559C362.757 106.031 362.538 108.723 362.702 111.36C362.263 117.019 360.065 122.293 359.516 127.951C358.692 136.796 356.714 145.916 359.461 154.651C364.186 148.828 364.46 141.027 366.713 134.104C369.46 128.116 371.383 121.743 373.525 115.48C374.679 112.459 374.844 109.162 375.393 106.031C375.723 104.438 375.943 102.789 376.107 101.196C376.547 96.8012 378.25 92.7358 379.569 88.6154C380.887 84.1105 385.557 82.1876 388.853 79.3309C391.985 77.5179 395.006 75.5401 398.193 73.837C401.324 72.1339 405.005 72.7932 408.411 73.1228C411.158 75.5951 413.081 78.7815 415.114 81.858C415.938 83.0667 416.377 84.4401 416.927 85.7586C419.289 83.0117 420.992 78.7265 425.057 78.287C431.43 77.9574 437.803 78.7815 444.176 78.8364C449.34 78.5617 454.394 77.1333 459.559 77.2981C463.789 77.2981 467.964 77.2981 472.194 77.2981C475.82 77.1333 479.336 78.287 482.852 79.0012C484.83 79.3858 486.368 80.8691 487.467 82.4623C489.445 86.6926 488.566 92.2963 492.467 95.4827C493.84 92.6809 495.268 89.5494 498.235 88.066C500.652 86.9673 503.235 86.1981 505.762 85.2642C508.234 84.3302 510.871 84.4951 513.398 84.4951C516.2 84.55 519.112 84.2204 521.749 85.3741C522.738 85.7037 523.672 86.1981 524.715 85.9784C528.231 85.2642 531.473 83.7809 534.989 83.1765C537.022 82.792 539.109 83.1765 541.142 83.671C544.603 84.4951 548.119 85.3191 551.58 86.0883C554.437 86.363 556.085 88.7802 557.733 90.813C560.425 93.9994 562.843 97.4055 565.919 100.207C567.348 101.691 569.16 103.009 569.82 105.097C570.754 108.173 571.578 111.305 572.567 114.381C573.116 116.524 575.753 117.348 576.193 119.546C576.962 122.512 578.006 125.369 578.555 128.336C577.511 128.006 576.522 127.567 575.478 127.127C573.72 134.983 578.06 143.114 575.314 150.86C574.215 153.882 573.61 157.069 572.237 159.98C570.754 162.892 568.227 165.089 566.304 167.727C564.436 170.199 562.733 172.836 561.085 175.528C559.381 178.22 557.678 180.967 555.261 182.999C551.086 186.515 547.02 190.251 542.845 193.767C539.604 196.679 536.088 199.426 533.121 202.722C530.978 204.37 528.781 206.019 526.144 206.678C521.969 207.722 517.738 208.875 513.398 209.04C506.586 209.425 499.554 210.139 492.906 208.326C489.83 206.623 487.577 203.656 484.72 201.623C483.255 199.499 481.717 197.412 480.106 195.36C478.018 192.669 476.864 189.427 475.161 186.46C473.293 179.264 474.996 171.737 474.062 164.485C473.843 162.562 471.865 161.903 470.327 161.354C469.173 169.924 468.404 178.549 467.58 187.12C467.14 190.856 465.437 194.207 464.503 197.778C463.349 200.195 462.031 202.557 460.438 204.645C458.625 207.062 456.922 209.754 454.065 211.018C451.318 212.281 448.351 213.325 445.275 213.38C442.253 213.38 439.561 211.677 437.034 210.249C434.342 208.601 432.694 205.854 430.826 203.436C429.892 202.173 428.738 200.964 428.409 199.371C427.749 196.899 428.189 194.262 428.299 191.735C428.464 183.988 428.683 176.297 429.178 168.606C429.288 167.122 429.452 165.639 429.562 164.21C429.727 157.563 430.331 150.97 430.716 144.323C430.936 141.521 431.156 138.664 431.265 135.862C431.54 132.017 431.705 128.171 431.43 124.325C428.244 124.16 425.002 124.106 421.816 123.391C420.058 123.117 418.245 122.512 416.432 122.732C415.553 124.051 415.114 125.589 414.564 127.017C413.41 130.588 411.872 134.049 410.993 137.675C409.51 143.389 407.807 149.102 406.763 154.926C405.444 160.09 401.928 164.76 402.423 170.309C402.862 174.978 402.148 179.978 404.346 184.318C405.17 186.131 405.829 188.054 406.653 189.922C405.554 195.031 401.269 198.382 398.248 202.393C395.336 206.128 390.831 208.051 386.71 210.139C384.183 211.402 381.162 211.128 378.525 210.194C375.393 209.15 372.317 207.722 369.405 206.128C366.878 204.7 364.955 202.502 362.922 200.47C361.659 201.843 360.505 203.272 359.406 204.81C361.439 206.183 363.581 207.337 365.394 208.985C367.098 210.633 367.317 213.16 367.482 215.358C367.427 216.237 367.262 217.116 367.152 217.995C366.548 221.401 367.317 225.467 364.57 228.049C362.922 229.917 360.34 230.301 357.923 230.301C354.242 230.246 350.561 230.356 346.88 230.246C343.584 230.191 340.672 228.598 337.651 227.444C329.245 222.994 320.4 219.423 311.775 215.413C306.116 212.666 300.238 210.469 294.469 207.996C289.689 205.909 284.47 204.48 280.185 201.349C275.735 198.217 270.956 195.635 266.451 192.614C265.022 191.68 263.539 190.91 262.056 190.196C260.407 194.042 258.814 197.943 256.891 201.678C255.848 203.821 254.09 205.854 251.617 206.238C247.332 206.952 242.717 207.777 238.487 206.238C235.85 205.304 233.158 204.59 230.521 203.711C230.027 203.436 229.532 203.162 229.093 202.832C226.401 199.261 223.049 195.965 221.456 191.68C217.775 195.47 214.644 199.756 210.853 203.436C208.875 205.304 207.117 207.447 205.03 209.15C203.107 210.743 200.415 210.578 198.052 210.633C195.69 209.974 193.712 208.051 192.888 205.744C191.625 202.448 190.361 199.096 189.152 195.8C187.889 192.723 188.383 189.317 188.328 186.131C188.328 185.856 188.383 185.362 188.383 185.087C188.603 179.978 188.823 174.814 188.164 169.759C183.769 171.133 179.483 172.946 175.363 174.978C174.869 180.033 173.715 184.977 171.902 189.757C170.473 194.921 167.672 199.481 165.639 204.37C164.046 205.909 162.398 207.337 160.914 208.985C159.486 210.359 158.112 211.952 156.135 212.446C153.827 212.941 151.52 212.446 149.267 212.062C146.74 211.512 144.048 211.018 141.906 209.425C138.335 206.623 134.269 204.151 132.401 199.81C128.226 200.635 124.27 202.283 120.205 203.491C117.348 204.425 114.821 205.964 112.019 206.843C109.767 207.557 107.349 206.952 105.152 206.128C102.68 203.711 101.196 200.525 99.3833 197.613C96.4716 192.669 93.45 187.724 90.5932 182.78C88.5056 178.934 86.2531 175.143 84.1105 171.352C83.1765 176.407 82.6821 181.516 81.858 186.57C81.1988 190.361 81.2537 194.536 78.7265 197.668C76.8586 199.81 76.3093 202.667 75.9796 205.414C75.2654 206.788 74.4414 208.216 73.1778 209.15C66.8049 213.435 58.784 215.193 51.2574 213.93C49.9938 212.941 48.8951 211.787 48.0161 210.469C45.5988 206.568 43.5661 202.393 41.5333 198.272C40.2698 195.745 40.4346 192.723 41.0389 190.031C42.4673 183.329 43.5111 176.462 45.5438 169.869C47.9062 161.848 49.7191 153.717 51.4772 145.531C53.2352 139.104 51.8617 132.346 52.4661 125.754C53.6747 118.447 55.5975 111.25 56.2019 103.888C56.5864 100.812 56.8062 97.7352 57.3006 94.7136C57.6303 92.2963 59.608 90.5932 61.0364 88.7253C63.3438 86.1432 65.1568 83.0117 68.1784 81.0889C72.6284 79.221 77.5728 81.913 82.1327 80.7043C84.8796 80.4296 85.7586 77.2432 88.2309 76.4191C90.9778 75.5951 94.1093 75.8148 96.6364 77.1883C99.4383 78.6167 102.68 79.8802 104.218 82.8469C105.701 86.7475 106.031 91.1426 108.228 94.8235C108.558 97.5154 108.668 100.372 107.624 102.899C106.525 105.756 104.657 108.393 104.328 111.525C104.163 115.48 106.36 119.051 108.613 122.128C109.162 118.722 109.547 115.26 110.426 111.854C111.25 108.778 111.854 105.646 112.129 102.515C112.788 98.779 112.953 94.9333 113.502 91.1975C113.722 89.7691 113.997 88.2858 114.821 87.1321C120.095 79.9352 125.204 72.6833 131.193 66.0907Z" fill="#232323" stroke="#232323" stroke-width="0.219753" stroke-miterlimit="10"/>
<path d="M133.994 70.0463C135.368 68.2883 138.499 68.7278 139.433 70.7055C142.015 75.0457 145.257 79.0012 146.52 83.9457C147.235 86.5278 148.718 89 148.443 91.7469C147.07 107.789 145.806 123.886 144.543 139.983C143.773 145.422 142.345 150.696 141.466 156.08C142.894 153.607 143.938 150.915 145.422 148.443C148.278 144.213 151.794 140.367 154.322 135.917C156.135 132.676 158.277 129.599 159.925 126.248C162.507 119.82 165.419 113.448 166.793 106.635C166.902 102.24 166.793 97.845 166.848 93.5049C172.671 88.7802 179.373 85.2092 185.362 80.7043C188.438 78.0673 191.295 75.2105 194.646 72.9031C195.745 72.2438 196.734 71.0352 198.107 71.0901C200.14 70.8154 201.843 72.1889 203.601 72.958C205.964 74.2765 208.546 75.2105 210.798 76.8037C212.666 78.0673 211.622 80.5944 211.677 82.4623C211.677 84.55 210.633 86.9673 212.117 88.7253C212.556 89.3296 212.996 89.9889 213.49 90.5932C214.699 92.7358 217.94 92.4611 219.039 94.7685C220.302 108.888 221.456 122.952 222.94 137.016C224.148 137.401 225.412 137.95 226.126 139.104C226.401 141.466 225.796 143.773 225.577 146.136C226.126 144.817 226.456 143.169 227.884 142.51C228.983 141.741 230.631 141.631 231.29 140.312C232.059 138.829 232.938 137.346 233.433 135.698C232.444 123.611 231.29 111.525 230.356 99.4383C230.796 96.087 232.499 93.0654 233.433 89.879C234.312 86.6926 236.509 84.1654 238.267 81.4185C239.641 79.3858 240.794 76.9685 243.157 75.8697C246.673 74.1117 250.079 72.079 253.65 70.3759C256.891 69.9364 260.188 70.321 263.484 70.2111C267.604 70.5407 271.45 72.2438 275.57 72.8481C279.965 73.3975 284.306 74.1117 288.701 74.6611C292.546 74.771 293.865 79.221 296.996 80.6494C299.414 81.4734 301.941 81.9679 304.413 82.737C305.567 83.0667 306.281 84.0555 307.05 84.9346C310.072 88.8901 313.093 92.7907 316.06 96.8012C316.939 97.9549 317.269 99.3833 317.708 100.702C318.312 102.625 319.191 104.493 319.081 106.58C319.027 110.041 319.136 113.502 319.027 116.964C316.554 120.535 313.533 123.721 311.006 127.237C308.973 130.314 305.677 132.181 302.765 134.379C300.402 136.027 298.205 137.95 295.678 139.433C290.514 142.125 285.349 144.817 280.13 147.509C278.427 148.223 277.768 150.146 276.944 151.685C277.878 154.651 280.46 156.684 282.657 158.717C300.677 171.517 318.642 184.318 336.662 197.064C344.463 201.733 352.429 206.238 360.285 210.853C361.109 211.348 361.878 212.007 362.648 212.611C362.702 216.237 362.318 219.863 361.988 223.489C361.878 224.423 360.944 225.027 360.395 225.741C355.286 225.357 350.177 225.631 345.067 225.631C334.904 220.852 324.685 216.292 314.467 211.567C306.83 207.996 299.029 204.975 291.228 201.733C288.975 200.744 286.613 200.03 284.525 198.657C276.285 193.053 267.604 188.164 259.254 182.615C258.21 185.527 257.825 188.658 256.562 191.515C255.353 194.152 254.09 196.734 252.936 199.371C252.331 200.47 251.617 201.843 250.244 201.843C246.618 202.173 242.772 203.217 239.256 201.678C237.004 200.799 234.531 200.305 232.389 199.206C230.081 197.064 228.214 194.372 226.51 191.68C226.401 187.175 226.401 182.56 226.51 178.055C227.609 176.242 229.587 175.363 231.235 174.209C231.235 170.473 231.235 166.793 231.29 163.057C229.642 161.958 227.719 161.024 226.785 159.156C225.522 156.574 223.654 153.992 224.148 150.97C222.994 152.619 221.731 154.212 220.852 156.025C221.181 160.255 221.731 164.43 222.061 168.66C222.5 173.385 220.797 177.835 220.028 182.395C219.478 184.318 219.588 186.625 218.105 188.164C212.886 194.262 207.831 200.635 201.678 205.854C200.69 205.964 199.701 205.909 198.712 205.909C196.734 203.876 196.294 200.964 195.196 198.437C194.372 195.91 192.833 193.438 192.998 190.636C193.071 181.589 193.071 172.524 192.998 163.441C190.196 163.991 187.559 165.09 184.812 165.969C180.198 167.342 176.022 169.979 171.298 171.188C170.419 175.748 170.419 180.472 168.715 184.812C167.177 189.537 165.749 194.372 163.277 198.657C162.068 201.843 159.321 203.876 157.069 206.238C156.409 206.843 155.86 207.667 154.981 207.996C152.454 208.271 149.981 207.447 147.564 206.952C146.465 206.788 145.422 206.403 144.598 205.689C142.18 203.766 139.708 202.008 137.456 199.92C137.291 195.36 136.467 190.801 136.851 186.241C138.664 182.89 141.027 179.758 142.785 176.352C142.894 174.044 142.455 171.737 142.4 169.375C142.4 166.848 141.027 164.595 140.038 162.288C136.851 172.286 135.643 182.78 133.335 192.998C133.115 193.767 132.456 194.317 131.852 194.701C125.204 197.338 118.117 198.767 111.744 202.118C110.151 202.832 107.899 202.722 106.965 200.964C101.636 192.174 96.4716 183.274 91.1426 174.484C88.5605 170.309 87.4617 165.419 85.2642 161.079C83.9457 160.255 82.2975 160.475 80.8142 160.42C79.2759 171.352 77.9574 182.395 76.1445 193.273C75.4303 194.591 74.3315 195.635 73.5074 196.789C71.5296 199.481 72.958 203.931 69.8266 205.854C67.684 207.007 65.4315 207.996 63.179 208.875C60.0475 209.425 56.8611 209.754 53.6747 209.754C50.2685 206.073 48.5654 201.239 46.2031 196.899C44.8846 194.866 45.379 192.339 45.8185 190.086C47.192 183.823 48.1259 177.396 50.0488 171.243C52.9056 161.683 54.9383 151.849 57.0259 142.07C57.3556 136.851 56.971 131.577 57.1908 126.358C57.905 121.963 58.8389 117.623 59.663 113.228C60.9266 107.294 61.0914 101.251 62.0253 95.2629C64.6624 91.8568 67.1895 88.3957 70.2661 85.3741C74.3315 84.7697 78.5068 86.5278 82.5722 85.429C83.9457 85.0994 85.429 84.8796 86.7475 84.3302C87.8463 83.2315 88.6704 81.7481 89.934 80.8142C92.571 80.1 94.9333 81.6932 97.1309 82.792C98.3945 83.4512 99.8228 84.2204 100.207 85.7037C101.251 89.4395 102.075 93.2302 103.614 96.8012C104.602 99.4932 102.899 101.965 101.856 104.328C101.086 106.141 99.9877 107.899 99.4383 109.877C99.3833 112.349 99.658 114.876 100.043 117.348C102.13 122.238 104.932 126.852 107.02 131.742C108.064 136.357 108.503 141.136 109.492 145.751C110.261 147.015 111.47 147.894 112.459 148.938C113.081 143.554 113.686 138.17 114.272 132.786C114.436 127.567 114.217 122.293 114.381 117.019C114.821 113.832 115.59 110.756 116.194 107.624C117.458 101.91 117.458 95.9771 118.502 90.2636C123.391 83.3413 128.446 76.4741 133.994 70.0463Z" fill="#FDFEFD" stroke="#FDFEFD" stroke-width="0.219753" stroke-miterlimit="10"/>
<path d="M400.994 77.6827C403.027 77.2432 405.884 76.6938 407.257 78.7266C408.906 80.979 410.499 83.2864 411.872 85.7587C412.202 92.1315 412.641 98.5593 412.696 104.987C412.367 110.481 411.652 115.92 411.213 121.414C410.004 126.358 407.917 131.028 406.653 135.917C405.115 142.144 403.577 148.352 402.038 154.541C401.104 158.497 398.797 161.958 397.753 165.859C397.808 170.858 398.302 175.802 398.302 180.747C398.248 184.538 402.258 187.23 401.434 191.13C399.236 194.207 396.599 197.009 394.182 199.975C392.204 202.557 388.908 203.546 386.216 205.194C384.788 206.238 382.975 206.678 381.217 206.293C377.756 205.249 374.404 203.821 371.328 201.898C368.471 200.36 366.823 197.393 364.955 194.866C363.636 195.031 362.318 195.086 361.054 195.47C358.747 197.888 356.879 200.744 354.572 203.162C353.473 204.37 351.44 204.151 350.231 203.272C347.375 201.349 344.628 199.316 341.771 197.448C339.518 195.965 336.881 195.141 334.629 193.602C332.596 191.79 330.783 189.757 328.806 187.889C327.817 186.79 326.498 185.911 326.223 184.428C325.399 180.802 324.191 177.286 323.861 173.605C323.477 168.935 323.037 164.375 322.598 159.706C322.158 149.322 321.938 138.939 321.499 128.556C321.499 122.348 320.949 116.085 320.949 109.877C322.103 105.756 324.026 101.856 325.454 97.8451C326.498 94.5488 328.696 91.9117 330.454 89C331.278 87.7364 332.047 86.1982 333.42 85.429C336.936 85.3191 340.452 85.3191 343.968 85.429C344.902 86.0883 345.617 87.0772 346.166 88.121C347.704 90.9778 349.188 93.8346 350.836 96.6914C352.978 99.9327 355.615 102.899 357.758 106.196C358.033 108.393 357.593 110.646 357.209 112.843C356.439 117.073 355.725 121.249 355.011 125.479C354.297 130.478 354.022 135.588 353.473 140.642C353.033 144.103 353.748 147.564 353.967 151.025C354.352 154.102 354.297 157.233 354.901 160.255C355.56 161.958 356.604 163.496 357.483 165.144C358.637 164.43 360.12 163.991 360.725 162.672C362.757 158.717 364.955 154.816 366.933 150.806C368.526 145.971 369.295 140.917 371.163 136.192C373.306 130.478 375.503 124.82 377.316 118.996C380.008 112.184 379.898 104.712 381.491 97.6803C382.315 95.0982 383.194 92.571 384.073 89.9889C384.733 87.8463 386.93 86.8574 388.523 85.5389C392.369 82.4074 396.709 80.1549 400.994 77.6827Z" fill="#FDFEFD" stroke="#FDFEFD" stroke-width="0.219753" stroke-miterlimit="10"/>
<path d="M452.746 82.5722C457.361 81.7482 462.031 82.2426 466.701 82.0778C470.491 82.2426 474.337 81.6383 478.018 82.737C479.831 83.2864 482.248 83.1216 483.402 84.9346C484.281 87.7914 484.61 90.813 485.599 93.6698C486.314 96.087 487.687 98.4494 487.412 101.086C487.138 103.998 486.478 106.91 486.039 109.877C485.764 111.799 483.622 112.514 482.028 113.228C478.842 114.821 475.161 115.096 471.645 115.755C471.315 121.469 471.81 127.237 471.315 132.951C471.151 135.917 471.041 138.939 470.656 141.906C469.557 144.213 467.799 146.081 466.865 148.443C466.371 151.135 466.481 153.882 466.151 156.574C465.107 166.628 463.789 176.681 463.02 186.79C462.91 189.043 461.866 191.13 461.097 193.218C459.998 195.91 459.284 198.822 457.361 201.074C455.493 203.217 454.23 206.238 451.318 207.172C448.956 207.996 446.373 209.48 443.791 208.546C441.154 207.172 438.243 205.799 436.539 203.217C435.386 201.349 433.573 199.865 432.914 197.778C432.968 189.372 433.463 180.967 433.683 172.506C434.672 156.409 435.715 140.257 436.704 124.161C436.759 122.128 436.375 120.15 436.21 118.117C432.694 118.447 429.233 119.436 425.662 119.051C423.794 118.831 421.981 118.392 420.113 118.007C416.762 117.733 415.718 114.052 414.619 111.415C414.344 107.679 413.685 103.833 413.85 100.043C417.036 94.0543 420.443 88.0111 425.167 83.1216C427.42 82.737 429.782 83.1216 432.089 83.1216C435.221 83.3414 438.298 83.2315 441.429 83.5062C445.22 84.0006 448.956 82.9568 452.746 82.5722Z" fill="#FEFEFD" stroke="#FEFEFD" stroke-width="0.219753" stroke-miterlimit="10"/>
<path d="M523.452 91.1426C527.517 90.2636 531.363 88.7253 535.373 87.7913C539.109 87.3518 542.625 89 546.251 89.6043C548.394 90.3185 551.141 90.0987 552.624 92.0765C555.92 95.9222 558.832 100.098 562.568 103.559C563.667 104.822 565.315 105.866 565.644 107.624C566.578 110.701 567.457 113.887 568.391 116.964C569.765 120.864 569.435 125.094 569.765 129.16C569.985 134.269 571.138 139.323 571.523 144.488C571.798 147.454 570.479 150.146 569.82 152.948C569.16 154.981 568.941 157.343 567.457 158.991C564.491 162.617 561.469 166.298 558.997 170.309C556.689 173.495 554.986 177.176 551.91 179.703C544.328 186.406 536.692 193.108 529.11 199.756C528.012 200.689 527.023 201.843 525.539 202.118C522.902 202.777 520.32 203.491 517.683 204.041C513.893 204.48 510.047 204.59 506.256 204.755C502.301 205.304 498.345 204.7 494.444 204.041C489.885 199.975 485.654 195.47 482.468 190.251C481.314 187.944 480.051 185.691 479.007 183.274C478.622 175.528 479.446 167.727 478.238 159.98C476.48 159.156 474.831 158.277 473.458 156.959C473.403 153.552 473.403 150.146 473.458 146.685C473.348 145.806 473.898 145.092 474.337 144.378C478.402 137.84 482.413 131.248 486.423 124.655C487.193 123.391 488.127 122.183 488.566 120.754C489.775 116.359 490.489 111.854 491.862 107.514C494.023 103.119 496.221 98.7241 498.455 94.329C499.499 92.0765 502.136 91.692 504.223 90.8679C506.146 90.2086 508.014 89.1648 510.102 89.2747C512.684 89.2747 515.211 89.2747 517.793 89.2747C519.826 89.2747 521.529 90.6481 523.452 91.1426Z" fill="#FEFEFD" stroke="#FEFEFD" stroke-width="0.219753" stroke-miterlimit="10"/>
<path d="M152.124 106.965C152.454 100.702 152.893 94.4938 153.278 88.2309C156.354 91.9667 157.178 96.8562 158.772 101.306C159.376 106.196 158.387 111.14 158.222 116.03C156.794 114.381 154.816 113.557 152.673 113.338C152.564 111.195 152.289 109.107 152.124 106.965Z" fill="#101019" stroke="#101019" stroke-width="0.219753" stroke-miterlimit="10"/>
<path d="M319.081 93.0105C320.4 92.6809 321.664 92.2963 322.982 91.9667C322.323 93.1753 321.719 94.4938 321.114 95.7574C320.4 94.8784 319.741 93.9445 319.081 93.0105Z" fill="#CB6B8E" stroke="#CB6B8E" stroke-width="0.219753" stroke-miterlimit="10"/>
<path d="M107.624 102.899C108.668 100.372 108.558 97.5154 108.228 94.8235C111.085 96.3617 111.085 99.7679 112.129 102.515C111.854 105.646 111.25 108.778 110.426 111.854C109.547 115.26 109.162 118.722 108.613 122.128C106.361 119.051 104.163 115.48 104.328 111.525C104.657 108.393 106.525 105.756 107.624 102.899Z" fill="#13141F" stroke="#13141F" stroke-width="0.219753" stroke-miterlimit="10"/>
<path d="M361.823 103.559C366.603 102.46 371.273 100.812 376.162 99.9327C376.162 100.262 376.107 100.867 376.107 101.196C375.943 102.79 375.723 104.438 375.393 106.031C375.228 106.69 375.064 107.404 374.899 108.064C370.943 109.107 366.933 109.767 363.087 111.195L362.702 111.36C362.538 108.723 362.757 106.031 361.823 103.559Z" fill="#E26393" stroke="#E26393" stroke-width="0.219753" stroke-miterlimit="10"/>
<path d="M152.124 106.965C152.289 109.107 152.564 111.195 152.673 113.338C154.816 113.557 156.794 114.381 158.222 116.03C158.112 116.744 158.057 117.458 158.002 118.227C156.19 123.336 153.607 128.116 150.311 132.401C150.201 128.556 150.586 124.71 150.97 120.864C151.41 116.249 151.19 111.525 152.124 106.965Z" fill="#171A29" stroke="#171A29" stroke-width="0.219753" stroke-miterlimit="10"/>
<path d="M359.516 127.951C360.065 122.293 362.263 117.019 362.702 111.36L363.087 111.195C364.625 113.173 366.164 115.151 367.647 117.183C368.636 118.337 368.416 119.985 368.471 121.414C368.471 125.699 367.207 129.874 366.713 134.104C364.46 141.027 364.186 148.828 359.461 154.651C356.714 145.916 358.692 136.796 359.516 127.951Z" fill="#1A1F34" stroke="#1A1F34" stroke-width="0.219753" stroke-miterlimit="10"/>
<path d="M416.432 122.732C418.245 122.512 420.058 123.117 421.816 123.391C425.002 124.106 428.244 124.16 431.43 124.325C431.705 128.171 431.54 132.017 431.265 135.862C429.068 135.423 426.87 135.093 424.618 134.654C423.739 134.159 422.915 133.5 422.091 132.841C421.926 134.379 421.816 135.917 421.596 137.401C419.948 142.4 418.025 147.289 416.817 152.454C416.542 151.52 416.212 150.641 415.938 149.762C413.685 149.597 411.488 148.938 409.894 147.344C409.51 150.091 408.631 152.783 406.763 154.926C407.807 149.102 409.51 143.389 410.993 137.675C411.872 134.049 413.41 130.588 414.564 127.017C415.114 125.589 415.553 124.051 416.432 122.732Z" fill="#1B1F35" stroke="#1B1F35" stroke-width="0.219753" stroke-miterlimit="10"/>
<path d="M575.314 150.86C578.06 143.114 573.72 134.983 575.478 127.127C576.522 127.567 577.511 128.006 578.555 128.336L578.83 128.446C580.368 133.06 579.983 138.005 580.368 142.839C580.917 149.542 582.73 156.19 581.796 162.947C581.027 165.804 580.148 168.606 579.379 171.462C578.885 173.55 577.236 175.088 575.863 176.627C576.412 174.484 576.907 172.396 577.511 170.254C576.412 171.572 575.369 172.836 574.325 174.209C574.215 173.605 574.105 173.056 573.995 172.506C571.358 172.671 568.721 172.836 566.084 172.726C565.15 173.55 564.985 174.978 564.491 176.132C563.337 175.912 562.238 175.693 561.085 175.528C562.733 172.836 564.436 170.199 566.304 167.727C568.227 165.089 570.754 162.892 572.237 159.98C573.61 157.069 574.215 153.882 575.314 150.86Z" fill="#1D2340" stroke="#1D2340" stroke-width="0.219753" stroke-miterlimit="10"/>
<path d="M308.478 136.247C311.5 134.489 313.643 131.632 316.335 129.435C316.609 130.753 316.719 132.127 316.719 133.5C316.664 138.005 317.543 142.51 317.378 147.07C313.917 149.487 310.511 152.069 307.05 154.596C304.413 156.574 301.391 157.893 298.48 159.431C297.161 160.09 295.843 160.749 294.579 161.464C292.162 159.98 289.909 158.222 287.547 156.629C285.734 155.42 283.811 154.102 282.712 152.124C282.657 151.355 283.372 151.08 283.976 150.751C288.316 148.498 292.711 146.301 296.996 144.048C301.117 141.906 304.523 138.664 308.478 136.247Z" fill="#1C223C" stroke="#1C223C" stroke-width="0.219753" stroke-miterlimit="10"/>
<path d="M422.091 132.841C422.915 133.5 423.739 134.159 424.618 134.654C423.629 135.588 422.585 136.522 421.596 137.401C421.816 135.917 421.926 134.379 422.091 132.841Z" fill="#FEFCFC" stroke="#FEFCFC" stroke-width="0.219753" stroke-miterlimit="10"/>
<path d="M424.618 134.654C426.87 135.093 429.068 135.423 431.265 135.862C431.156 138.664 430.936 141.521 430.716 144.323C425.717 146.905 421.596 150.86 416.597 153.388C416.652 153.168 416.762 152.673 416.817 152.454C418.025 147.289 419.948 142.4 421.596 137.401C422.585 136.522 423.629 135.588 424.618 134.654Z" fill="#E16393" stroke="#E16393" stroke-width="0.219753" stroke-miterlimit="10"/>
<path d="M406.763 154.926C408.631 152.783 409.51 150.091 409.894 147.344C411.488 148.938 413.685 149.597 415.938 149.762C416.212 150.641 416.542 151.52 416.817 152.454C416.762 152.673 416.652 153.168 416.597 153.388C415.352 158.515 414.088 163.624 412.806 168.715C411.927 172.286 410.224 175.528 408.906 178.934C408.081 180.912 408.356 183.054 408.521 185.142C408.741 188.164 408.796 191.24 408.906 194.317C408.136 192.833 407.312 191.405 406.653 189.922C405.829 188.054 405.17 186.131 404.346 184.318C402.148 179.978 402.862 174.978 402.423 170.309C401.928 164.76 405.444 160.09 406.763 154.926Z" fill="#1E2443" stroke="#1E2443" stroke-width="0.219753" stroke-miterlimit="10"/>
<path d="M294.579 161.464C295.843 160.749 297.161 160.09 298.48 159.431C304.852 160.365 311.28 160.639 317.708 161.134C317.928 162.233 318.093 163.277 318.312 164.375C318.477 165.09 318.532 165.749 318.532 166.463C318.477 167.452 318.477 168.441 318.477 169.43C314.357 169.594 310.236 169.54 306.171 169.54C302.106 167.067 298.48 164.046 294.579 161.464Z" fill="#E26393" stroke="#E26393" stroke-width="0.219753" stroke-miterlimit="10"/>
<path d="M412.806 168.715C418.52 166.023 423.849 162.672 429.452 159.76C429.507 161.244 429.562 162.727 429.562 164.21C429.452 165.639 429.288 167.122 429.178 168.606C428.958 170.583 429.178 172.616 428.628 174.539C422.091 178.33 415.278 181.681 408.521 185.142C408.356 183.054 408.081 180.912 408.906 178.934C410.224 175.528 411.927 172.286 412.806 168.715Z" fill="#E16393" stroke="#E16393" stroke-width="0.219753" stroke-miterlimit="10"/>
<path d="M470.327 161.354C471.865 161.903 473.843 162.562 474.062 164.485C474.996 171.737 473.293 179.264 475.161 186.46C474.886 188.219 474.612 189.977 474.447 191.735C473.238 191.13 472.03 190.416 470.711 190.141C469.887 190.856 469.228 191.789 468.514 192.614C468.349 191.954 468.129 191.35 467.964 190.691C467.305 193.273 466.206 195.745 464.503 197.778C465.437 194.207 467.14 190.856 467.58 187.12C468.404 178.549 469.173 169.924 470.327 161.354Z" fill="#1E2648" stroke="#1E2648" stroke-width="0.219753" stroke-miterlimit="10"/>
<path d="M175.363 174.978C179.483 172.946 183.769 171.133 188.164 169.759C188.823 174.814 188.603 179.978 188.383 185.087C186.131 185.801 183.933 186.735 181.681 187.614C181.626 187.944 181.516 188.603 181.461 188.933C180.967 192.009 180.747 195.141 179.923 198.107C179.428 196.844 179.154 195.47 178.934 194.097C176.846 194.207 174.814 194.701 173.001 195.69C172.891 194.646 172.726 193.602 172.561 192.559C170.144 196.459 169.1 201.239 165.639 204.37C167.672 199.481 170.473 194.921 171.902 189.757C173.715 184.977 174.869 180.033 175.363 174.978Z" fill="#1E264A" stroke="#1E264A" stroke-width="0.219753" stroke-miterlimit="10"/>
<path d="M574.325 174.209C575.369 172.836 576.412 171.572 577.511 170.254C576.907 172.396 576.412 174.484 575.863 176.627C574.929 178.385 573.391 179.703 572.292 181.406C569.655 185.197 567.238 189.152 564.491 192.833C560.151 197.503 555.041 201.404 550.372 205.744C549.767 204.92 549.163 204.151 548.559 203.327C550.866 202.393 553.173 201.294 555.261 199.865C555.041 199.481 554.822 199.096 554.657 198.767C551.8 198.822 548.998 199.096 546.306 199.865C544.054 200.525 541.691 200.25 539.439 199.81C538.835 201.019 538.175 202.173 537.571 203.381C536.912 203.381 536.252 203.436 535.593 203.491C536.252 202.502 536.857 201.569 537.516 200.58C536.033 201.349 534.549 202.008 533.121 202.722C536.088 199.426 539.604 196.679 542.845 193.767C547.02 190.251 551.086 186.515 555.261 182.999C557.678 180.967 559.381 178.22 561.085 175.528C562.238 175.693 563.337 175.912 564.491 176.132C564.985 174.978 565.15 173.55 566.084 172.726C568.721 172.836 571.358 172.671 573.995 172.506C574.105 173.056 574.215 173.605 574.325 174.209Z" fill="#1F264C" stroke="#1F264C" stroke-width="0.219753" stroke-miterlimit="10"/>
<path d="M84.1105 171.352C86.2531 175.143 88.5055 178.934 90.5932 182.78C89 189.043 89.1099 195.745 87.4068 202.008C86.8574 200.69 86.308 199.316 85.9784 197.888C84.8247 197.833 83.7259 197.833 82.5722 197.833C83.5611 198.382 84.55 198.931 85.484 199.536C82.0228 200.909 77.6278 201.514 75.9796 205.414C76.3093 202.667 76.8586 199.81 78.7265 197.668C81.2537 194.536 81.1988 190.361 81.858 186.57C82.6821 181.516 83.1765 176.407 84.1105 171.352Z" fill="#1F274C" stroke="#1F274C" stroke-width="0.219753" stroke-miterlimit="10"/>
<path d="M181.681 187.614C183.933 186.735 186.131 185.801 188.383 185.087C188.383 185.362 188.328 185.856 188.328 186.131C186.131 187.175 183.769 188.054 181.461 188.933C181.516 188.603 181.626 187.944 181.681 187.614Z" fill="#DB6A99" stroke="#DB6A99" stroke-width="0.219753" stroke-miterlimit="10"/>
<path d="M262.056 190.196C263.539 190.911 265.022 191.68 266.451 192.614C270.956 195.635 275.735 198.217 280.185 201.349C284.47 204.48 289.69 205.909 294.469 207.996C300.238 210.469 306.116 212.666 311.775 215.413C320.4 219.423 329.245 222.994 337.651 227.444C332.596 226.73 328.146 223.928 323.312 222.445C323.751 222.994 324.246 223.544 324.685 224.093C322.927 225.906 320.51 226.675 318.148 227.499C309.522 223.599 300.677 220.193 291.997 216.512C290.349 215.743 288.92 214.644 287.437 213.655C285.789 212.501 284.086 211.402 282.383 210.414C277.768 207.63 273.208 204.773 268.703 201.843C267.494 206.513 265.132 210.743 263.154 215.083C261.836 216.622 260.407 218.599 258.155 218.764C254.529 219.259 250.848 219.259 247.222 219.259C245.025 218.599 242.882 217.83 240.685 217.116C236.399 216.072 234.257 211.842 231.675 208.71C230.356 207.337 230.521 205.414 230.521 203.711C233.158 204.59 235.85 205.304 238.487 206.238C242.717 207.777 247.332 206.952 251.617 206.238C254.09 205.854 255.848 203.821 256.891 201.678C258.814 197.943 260.407 194.042 262.056 190.196Z" fill="#1F2854" stroke="#1F2854" stroke-width="0.219753" stroke-miterlimit="10"/>
<path d="M406.653 189.922C407.312 191.405 408.136 192.833 408.906 194.317C409.84 196.404 411.048 198.382 411.927 200.58C412.092 202.502 412.147 204.535 411.872 206.458C410.444 208.546 408.631 210.359 407.093 212.336C404.73 215.083 402.533 218.27 399.181 219.808C396.929 220.907 394.896 222.445 392.534 223.214C390.721 223.324 388.853 223.379 387.04 223.159C383.799 222.17 380.612 220.907 377.756 219.149C374.624 217.556 372.427 214.809 370.394 212.062C369.405 213.16 368.471 214.314 367.482 215.358C367.317 213.16 367.098 210.633 365.394 208.985C363.581 207.337 361.439 206.183 359.406 204.81C360.505 203.272 361.659 201.843 362.922 200.47C364.955 202.502 366.878 204.7 369.405 206.128C372.317 207.722 375.393 209.15 378.525 210.194C381.162 211.128 384.183 211.402 386.711 210.139C390.831 208.051 395.336 206.128 398.248 202.393C401.269 198.382 405.554 195.031 406.653 189.922Z" fill="#1F2854" stroke="#1F2854" stroke-width="0.219753" stroke-miterlimit="10"/>
<path d="M468.514 192.614C469.228 191.789 469.887 190.856 470.711 190.141C472.03 190.416 473.238 191.13 474.447 191.735C474.227 195.196 473.733 198.657 473.513 202.173C473.348 204.59 472.14 206.788 471.37 209.04C470.436 211.183 469.887 213.545 468.459 215.468C466.591 217.94 464.778 220.577 462.47 222.665C461.152 223.928 459.284 224.313 457.636 224.972C455.438 225.961 453.021 225.577 450.714 225.631C449.175 225.631 447.967 224.533 446.648 223.873C442.638 221.786 440.22 217.83 437.583 214.314C436.54 213.215 436.979 211.622 437.034 210.249C439.561 211.677 442.253 213.38 445.275 213.38C448.351 213.325 451.318 212.281 454.065 211.018C456.922 209.754 458.625 207.062 460.438 204.645C462.031 202.557 463.349 200.195 464.503 197.778C466.206 195.745 467.305 193.273 467.964 190.691C468.129 191.35 468.349 191.954 468.514 192.614Z" fill="#1F2855" stroke="#1F2855" stroke-width="0.219753" stroke-miterlimit="10"/>
<path d="M210.853 203.436C214.644 199.756 217.775 195.47 221.456 191.68C223.049 195.965 226.401 199.261 229.093 202.832C223.214 209.699 217.446 216.731 210.578 222.61C208.656 222.885 206.623 222.885 204.7 222.665C200.415 220.138 200.03 214.699 198.052 210.633C200.415 210.578 203.107 210.743 205.03 209.15C207.117 207.447 208.875 205.304 210.853 203.436Z" fill="#1F2853" stroke="#1F2853" stroke-width="0.219753" stroke-miterlimit="10"/>
<path d="M165.639 204.37C169.1 201.239 170.144 196.459 172.561 192.559C172.726 193.602 172.891 194.646 173.001 195.69C174.814 194.701 176.846 194.207 178.934 194.097C179.154 195.47 179.428 196.844 179.923 198.107C178.165 204.425 175.693 210.523 172.506 216.292C169.704 219.149 167.067 222.28 163.881 224.643C160.365 225.357 156.739 224.643 153.333 223.764C150.861 223.269 148.993 221.401 147.07 219.973C145.092 218.544 143.224 216.951 141.631 215.083C141.631 214.864 141.521 214.369 141.466 214.149C141.356 213.27 141.301 212.336 141.246 211.457C135.258 213.38 129.215 215.193 123.336 217.61C120.59 219.204 117.293 219.808 114.217 219.039C113.118 218.435 112.294 217.501 111.47 216.622C109.107 213.325 107.13 209.699 105.152 206.128C107.349 206.952 109.767 207.557 112.019 206.843C114.821 205.964 117.348 204.425 120.205 203.491C124.27 202.283 128.226 200.635 132.401 199.81C134.269 204.151 138.335 206.623 141.906 209.425C144.048 211.018 146.74 211.512 149.267 212.062C151.52 212.446 153.827 212.941 156.135 212.446C158.112 211.952 159.486 210.359 160.914 208.985C162.398 207.337 164.046 205.909 165.639 204.37Z" fill="#1F2855" stroke="#1F2855" stroke-width="0.219753" stroke-miterlimit="10"/>
<path d="M82.5722 197.833C83.7259 197.833 84.8247 197.833 85.9784 197.888C86.308 199.316 86.8574 200.689 87.4068 202.008C87.6815 203.711 87.0772 205.414 86.9124 207.062C86.8025 209.48 84.4951 210.853 83.5062 212.831C82.792 215.028 82.6272 217.336 81.858 219.478C79.5506 222.939 75.5401 224.368 71.8043 225.741C67.7938 226.401 63.6735 226.785 59.608 226.51C55.3778 223.544 53.4549 218.38 51.2574 213.93C58.784 215.193 66.8049 213.435 73.1778 209.15C74.4414 208.216 75.2654 206.788 75.9796 205.414C77.6278 201.514 82.0229 200.909 85.484 199.536C84.55 198.931 83.5611 198.382 82.5722 197.833Z" fill="#1F2856" stroke="#1F2856" stroke-width="0.219753" stroke-miterlimit="10"/>
<path d="M546.306 199.865C548.998 199.096 551.8 198.822 554.657 198.767C554.822 199.096 555.041 199.481 555.261 199.865C553.173 201.294 550.866 202.393 548.559 203.327C549.163 204.151 549.767 204.92 550.372 205.744C546.471 209.15 542.57 212.556 538.725 215.962C537.296 217.116 536.033 218.709 534.165 218.984C531.198 219.643 528.341 220.632 525.375 221.072C516.969 221.401 508.454 222.665 500.103 220.907C494.17 215.248 487.742 209.425 484.72 201.623C487.577 203.656 489.83 206.623 492.906 208.326C499.554 210.139 506.586 209.425 513.398 209.04C517.738 208.875 521.969 207.722 526.144 206.678C528.781 206.019 530.978 204.37 533.121 202.722C534.549 202.008 536.033 201.349 537.516 200.58C536.857 201.569 536.252 202.502 535.593 203.491C536.252 203.436 536.912 203.381 537.571 203.381C538.175 202.173 538.835 201.019 539.439 199.81C541.691 200.25 544.054 200.525 546.306 199.865Z" fill="#1F2855" stroke="#1F2855" stroke-width="0.219753" stroke-miterlimit="10"/>
<path d="M282.383 210.414C284.086 211.402 285.789 212.501 287.437 213.655C286.119 214.589 284.635 215.248 283.152 215.798C275.241 218.819 267.385 222.115 259.528 225.137C254.749 226.73 249.914 228.049 245.08 229.422C232.499 233.378 219.533 236.235 206.513 238.652C194.152 240.74 181.571 242.498 168.99 242.003C162.782 241.509 156.354 240.904 150.806 237.883C147.784 236.18 145.202 233.158 144.927 229.587C144.543 226.236 146.136 223.104 147.07 219.973C148.993 221.401 150.86 223.269 153.333 223.764C156.739 224.643 160.365 225.357 163.881 224.643C167.067 222.28 169.704 219.149 172.506 216.292C173.001 218.16 173.275 220.248 174.539 221.786C176.352 224.038 179.099 225.357 181.791 226.126C187.779 227.829 194.097 227.939 200.25 227.719C211.183 227.115 222.006 225.357 232.664 223.049C237.553 221.951 242.498 220.962 247.222 219.259C250.848 219.259 254.529 219.259 258.155 218.764C260.407 218.599 261.836 216.622 263.154 215.083C266.121 214.864 268.923 213.985 271.78 213.27C275.296 212.281 278.922 211.512 282.383 210.414Z" fill="#E16393" stroke="#E16393" stroke-width="0.219753" stroke-miterlimit="10"/>
<path d="M123.336 217.61C129.215 215.193 135.258 213.38 141.246 211.457C141.301 212.336 141.356 213.27 141.466 214.149C138.28 218.38 135.423 223.049 134.049 228.214C133.061 232.059 133.225 236.509 135.643 239.86C137.895 243.102 141.466 245.08 145.092 246.398C151.3 248.596 157.948 249.2 164.54 249.365C177.835 249.639 191.075 247.936 204.151 245.684C215.798 243.596 227.335 241.124 238.707 237.883C257.496 232.938 276.34 227.939 295.128 222.994C297.106 222.445 299.414 222.445 300.952 223.928C302.655 224.862 301.996 226.95 301.996 228.543C292.876 232.554 283.536 236.125 274.362 240.025C267.44 242.717 260.792 246.014 253.595 247.881C245.794 250.354 237.883 252.386 230.136 255.078C206.073 261.616 181.626 267.11 156.849 269.857C143.004 271.23 128.94 272.054 115.151 269.637C108.119 268.264 100.647 266.066 95.8124 260.462C92.1864 256.287 91.692 250.189 93.1204 245.025C95.208 237.553 99.658 231.015 104.438 225.027C106.635 222.115 109.327 219.588 111.47 216.622C112.294 217.501 113.118 218.435 114.217 219.039C117.293 219.808 120.59 219.204 123.336 217.61Z" fill="#E16393" stroke="#E16393" stroke-width="0.219753" stroke-miterlimit="10"/>
<path d="M364.57 228.049C367.317 225.467 366.548 221.401 367.152 217.995C367.207 218.819 366.823 219.918 367.812 220.357C369.79 221.566 371.767 222.94 373.086 224.862C373.36 229.257 372.976 233.598 372.591 237.883C372.646 239.915 370.669 241.069 369.35 242.278C363.197 242.443 356.989 242.443 350.781 242.278C339.848 237.553 329.025 232.444 318.148 227.499C320.51 226.675 322.927 225.906 324.685 224.093C324.246 223.544 323.751 222.994 323.312 222.445C328.146 223.928 332.596 226.73 337.651 227.444C340.672 228.598 343.584 230.191 346.88 230.246C350.561 230.356 354.242 230.246 357.923 230.301C360.34 230.301 362.922 229.917 364.57 228.049Z" fill="#1F295A" stroke="#1F295A" stroke-width="0.219753" stroke-miterlimit="10"/>
<path d="M505.157 223.654C507.904 223.159 510.761 223.379 513.563 223.269C511.64 226.236 509.278 228.818 507.3 231.675C509.443 232.059 511.585 232.718 513.453 233.927C515.925 235.575 518.837 237.004 520.32 239.696C520.76 240.355 519.826 240.794 519.496 241.234C517.518 242.772 515.651 244.365 513.673 245.849C512.904 246.453 512.135 245.629 511.53 245.244C508.838 243.267 506.256 241.179 503.454 239.366C502.301 240.025 501.257 240.904 500.598 242.058C497.686 246.673 494.609 251.178 491.752 255.793C488.346 256.122 484.885 256.342 481.424 256.342C487.907 247.112 493.895 237.553 501.037 228.818C502.41 227.115 503.564 225.192 505.157 223.654Z" fill="#ED1B23" stroke="#ED1B23" stroke-width="0.219753" stroke-miterlimit="10"/>
<path d="M425.277 231.675C426.87 229.202 428.189 226.51 430.057 224.258C433.353 224.203 436.649 224.643 439.946 224.972C438.462 227.28 436.869 229.477 435.386 231.73C439.781 231.785 444.231 232.059 448.681 232.114C447.198 234.202 445.604 236.18 443.956 238.048C440.001 237.938 436.045 238.322 432.089 238.267C430.936 238.377 429.617 238.157 428.738 238.927C426.101 241.234 424.123 244.201 421.377 246.398C418.355 248.706 415.608 251.562 412.037 253.046C408.631 254.419 405.335 256.507 401.544 256.397C400.5 254.694 399.511 252.991 398.522 251.288C401.928 250.958 405.225 249.969 408.466 248.815C412.861 246.618 416.432 243.157 419.838 239.641C419.509 238.981 419.234 238.322 418.904 237.663C414.125 237.663 409.345 237.718 404.565 237.608C405.884 235.74 407.093 233.707 408.631 231.949C414.125 231.4 419.728 232.004 425.277 231.675Z" fill="#ED1B23" stroke="#ED1B23" stroke-width="0.219753" stroke-miterlimit="10"/>
<path d="M463.404 235.136C465.767 231.785 467.635 228.049 470.107 224.752C472.689 224.752 475.216 225.082 477.798 225.467C475.326 229.972 472.085 233.982 469.228 238.212C467.909 240.3 465.877 242.168 465.712 244.75C469.997 244.31 473.238 241.344 476.644 239.036C478.787 237.553 480.985 236.125 483.182 234.696C484.391 236.18 485.544 237.718 486.588 239.366C479.336 244.585 471.37 248.596 463.569 252.826C460.273 254.199 456.867 255.353 453.57 256.562C452.197 255.628 450.878 254.584 449.725 253.375C454.394 247.387 459.174 241.509 463.404 235.136Z" fill="#ED1B23" stroke="#ED1B23" stroke-width="0.219753" stroke-miterlimit="10"/>
<path d="M345.067 225.631C350.177 225.631 355.286 225.357 360.395 225.741L360.944 225.851C358.362 226.62 355.615 226.291 352.978 226.346C350.177 226.291 347.265 226.62 344.518 225.851L345.067 225.631Z" fill="#0D0C0C" stroke="#0D0C0C" stroke-width="0.219753" stroke-miterlimit="10"/>
<path d="M458.57 226.071C461.262 226.071 463.954 225.906 466.646 225.906C465.657 228.763 463.569 231.125 461.756 233.488C459.559 236.07 457.581 238.817 455.438 241.454C450.823 246.398 445.659 250.793 440.605 255.243C439.561 256.012 438.243 256.067 437.034 256.452C435.496 255.353 433.957 254.309 432.584 253.046C436.924 251.398 440.22 248.046 443.352 244.805C448.846 238.927 455.109 233.488 458.57 226.071Z" fill="#ED1B24" stroke="#ED1B24" stroke-width="0.219753" stroke-miterlimit="10"/>
<path d="M381.162 234.751C387.535 234.641 393.907 234.641 400.28 234.696C398.907 237.004 397.478 239.201 395.885 241.344C389.732 241.289 383.524 241.399 377.316 241.289C378.47 239.036 379.898 236.949 381.162 234.751Z" fill="#ED1B24" stroke="#ED1B24" stroke-width="0.219753" stroke-miterlimit="10"/>
<path d="M530.484 234.696C537.022 234.751 543.559 234.531 550.097 234.806C548.669 236.949 547.625 239.476 545.812 241.289C539.384 241.399 532.956 241.344 526.528 241.289C527.682 238.981 529.11 236.839 530.484 234.696Z" fill="#ED1B24" stroke="#ED1B24" stroke-width="0.219753" stroke-miterlimit="10"/>
<path d="M138.499 162.013C135.478 171.792 134.324 182.065 132.127 192.064C131.907 192.778 131.302 193.328 130.698 193.712C124.38 196.294 117.568 197.668 111.525 200.964C109.986 201.623 108.283 200.36 107.404 198.602C102.295 190.031 97.955 182.23 92.8457 173.605C90.3735 169.54 88.6154 163.277 86.5278 159.046C85.2642 158.277 81.3636 158.002 79.9352 157.948C78.4519 168.66 76.4741 181.131 74.7161 191.735C74.0568 193.053 73.013 194.207 72.2438 195.306C70.3759 197.943 71.6395 200.854 68.6729 202.722C66.6401 203.876 66.1457 204.92 64.0031 205.744C61.0364 206.293 57.9599 208.216 54.9383 208.216C51.6969 204.645 49.7741 199.261 47.5216 195.031C46.258 193.053 47.0821 191.185 47.5216 188.988C48.8401 182.89 50.1037 176.077 51.9167 170.034C54.6636 160.694 57.3006 151.849 59.2784 142.29C59.608 137.181 59.2235 132.017 59.4432 126.907C60.1025 122.622 60.9815 118.392 61.8056 114.107C63.0142 108.283 63.1241 102.405 64.058 96.5815C66.5852 93.2302 68.9475 89.8241 71.9142 86.9123C75.8148 86.308 79.7704 88.0111 83.671 86.9673C84.9895 86.6377 86.363 86.4179 87.6266 85.8685C88.6704 84.8247 89.4945 83.3414 90.7031 82.4623C93.2303 81.7481 95.4827 83.2864 97.5704 84.3852C98.779 85.0444 99.3284 85.7586 99.713 87.242C100.702 90.8679 101.196 93.9444 102.625 97.4605C103.614 100.043 101.141 103.174 100.152 105.481C99.3834 107.294 98.8889 108.778 98.3395 110.701C98.2846 113.118 99.0537 115.865 99.4383 118.282C101.416 123.062 104.438 127.896 106.47 132.676C107.459 137.181 107.844 141.796 108.778 146.301C110.041 148.443 112.294 149.597 112.294 149.597C113.228 150.641 114.436 145.422 115.755 133.335C115.92 128.226 115.755 123.172 115.92 118.007C116.359 114.876 116.964 111.305 117.568 108.228C118.777 102.68 118.886 96.8012 119.93 91.1975C124.545 84.4401 128.336 79.221 133.665 72.958L134.214 71.5846C135.478 69.8815 137.071 70.6506 137.95 72.5735C140.422 76.8037 143.499 80.6494 144.707 85.484C145.367 88.0111 146.795 90.4284 146.575 93.1204C145.257 108.778 144.048 124.545 142.84 140.257C142.07 145.531 140.752 150.696 139.873 155.97L138.499 162.013Z" fill="url(#paint0_linear_46_229)"/>
<path d="M400.445 79.2759C402.423 78.8364 404.456 78.2321 405.774 80.1549C407.367 82.3525 408.686 84.9895 410.004 87.3518C410.334 93.5049 410.773 99.713 410.773 105.921C410.499 111.195 409.785 116.469 409.345 121.743C408.191 126.523 406.214 131.028 404.95 135.752C403.485 141.722 402.002 147.692 400.5 153.662C399.621 157.508 397.423 160.859 396.38 164.595C396.435 169.43 396.654 175.198 396.654 179.923C396.599 183.604 399.896 186.351 399.127 190.086C396.984 193.053 395.281 194.646 392.973 197.503C391.051 199.975 387.864 200.909 385.282 202.502C383.909 203.546 382.151 203.931 380.448 203.601C377.096 202.557 373.91 201.184 370.943 199.316C368.141 197.833 366.548 194.976 364.79 192.559C363.527 192.723 362.208 192.778 360.999 193.163C358.802 195.47 356.989 198.217 354.736 200.58C353.693 201.733 351.77 201.514 350.561 200.689C347.814 198.822 345.177 196.844 342.43 195.031C340.233 193.602 337.706 192.833 335.563 191.35C333.585 189.592 331.827 187.614 329.904 185.856C328.97 184.757 328.531 184.098 328.256 182.67C327.487 179.209 326.169 175.088 325.894 171.517C325.509 167.012 324.85 163.222 324.411 158.717C323.971 148.663 323.916 137.95 323.477 127.951C323.477 121.963 323.147 116.359 323.147 110.371C324.246 106.36 325.29 102.899 326.718 98.9988C327.707 95.8673 329.794 93.2852 331.498 90.4833C332.322 89.2747 333.036 87.7913 334.354 87.0772C337.761 86.9673 340.233 86.9673 343.639 87.0772C344.518 87.6815 345.562 91.0327 346.111 92.0216C347.594 94.7685 349.188 96.966 350.781 99.713C352.869 102.844 352.978 102.735 355.725 106.031C357.099 107.679 356.11 111.36 355.725 113.448C354.956 117.568 353.693 121.194 352.978 125.259C352.264 130.094 352.154 135.807 351.605 140.642C351.165 143.993 351.385 146.41 351.605 149.707C351.99 152.673 352.594 156.904 353.143 159.815C353.802 161.409 355.78 166.078 356.659 167.672C357.758 166.957 361.439 164.705 362.043 163.441C364.021 159.651 366.988 154.706 368.911 150.806C370.449 146.136 372.042 141.081 373.855 136.522C375.943 131.028 377.041 125.919 378.799 120.315C381.382 113.777 381.931 106.525 383.469 99.713C384.238 97.2407 384.293 94.2741 385.117 91.7469C385.777 89.7142 387.15 89.1648 388.688 87.9012C392.369 84.8796 395.611 81.9679 399.786 79.6055L400.445 79.2759Z" fill="url(#paint1_linear_46_229)"/>
<path d="M452.966 84.3302C457.306 83.5062 461.756 84.0006 466.206 83.8358C469.777 84.0006 473.458 83.3963 476.974 84.4951C478.677 84.9895 480.985 84.8247 482.083 86.5827C482.907 89.3846 483.237 92.2963 484.171 95.0981C484.83 97.4605 486.149 99.7129 485.874 102.295C485.599 105.097 485.05 106.91 484.665 109.822C484.391 111.689 482.303 112.019 480.82 112.733C477.798 114.272 473.348 113.942 469.997 114.546C469.667 120.095 470.491 127.347 469.997 132.896C469.832 135.752 469.612 139.159 469.283 142.015C468.239 144.268 466.481 145.971 465.602 148.278C465.107 150.86 464.998 153.168 464.668 155.75C463.679 165.529 462.47 175.638 461.756 185.417C461.646 187.614 461.042 189.427 460.273 191.46C459.229 194.097 458.844 196.624 456.977 198.822C455.219 200.854 454.34 204.425 451.593 205.304C449.34 206.128 446.868 207.557 444.451 206.623C441.923 205.304 439.177 203.986 437.528 201.459C436.43 199.646 434.727 198.217 434.067 196.185C434.122 187.999 435.166 179.538 435.386 171.352C436.32 155.695 437.364 140.093 438.298 124.435C438.352 122.457 437.583 118.557 437.419 116.579C434.067 116.909 430.881 118.227 427.53 117.843C425.717 117.623 423.409 117.678 421.651 117.293C418.465 117.019 417.751 114.876 416.707 112.294C416.432 108.668 415.828 104.932 415.993 101.251C419.014 95.4827 422.256 89.6043 426.706 84.8247C428.848 84.495 431.101 84.8247 433.298 84.8247C436.265 85.0444 439.231 84.9346 442.198 85.2093C445.769 85.7037 449.34 84.6599 452.966 84.3302Z" fill="url(#paint2_linear_46_229)"/>
<path d="M524.166 94.2741C528.012 93.45 531.638 91.9667 535.483 91.0877C538.999 90.7031 542.351 92.2414 545.757 92.8457C547.79 93.5049 550.427 93.2852 551.8 95.1531C554.931 98.8339 557.678 102.79 561.249 106.031C562.293 107.24 563.831 108.228 564.161 109.877C565.04 112.788 565.864 115.81 566.743 118.722C568.062 122.402 567.732 126.413 568.062 130.259C568.281 135.093 569.38 139.928 569.71 144.817C569.985 147.619 568.721 150.146 568.117 152.783C567.457 154.706 567.293 156.959 565.864 158.552C563.062 161.958 560.206 165.474 557.843 169.265C555.646 172.286 554.052 175.748 551.141 178.165C543.944 184.483 536.692 190.856 529.55 197.119C528.506 197.998 527.517 199.096 526.144 199.371C523.617 199.975 521.199 200.69 518.672 201.184C515.101 201.623 511.475 201.678 507.849 201.843C504.114 202.393 500.378 201.788 496.642 201.184C492.357 197.338 488.346 193.053 485.325 188.109C484.226 185.966 483.017 183.823 482.028 181.516C481.699 174.209 482.468 166.793 481.314 159.486C479.666 158.662 478.073 157.838 476.754 156.629C476.699 153.388 476.699 150.146 476.754 146.85C476.699 146.026 477.194 145.367 477.633 144.707C481.479 138.499 485.27 132.236 489.06 126.028C489.775 124.82 490.654 123.666 491.093 122.348C492.247 118.172 492.906 113.887 494.225 109.767C496.239 105.628 498.327 101.471 500.488 97.2957C501.477 95.1531 503.949 94.8235 505.927 93.9994C507.74 93.3951 509.552 92.4062 511.53 92.516C513.948 92.516 516.365 92.516 518.782 92.516C520.705 92.516 522.353 93.8346 524.166 94.2741Z" fill="url(#paint3_linear_46_229)"/>
<path d="M523.946 122.238C526.364 122.018 528.781 121.853 531.198 121.743C534 121.469 536.802 122.293 539.329 123.501C539.329 125.094 539.714 126.688 540.043 128.226C541.472 133.555 540.812 139.104 540.977 144.543C541.197 146.96 539.823 149.048 538.56 150.97C536.143 154.871 534.055 158.991 530.869 162.343C528.177 165.309 525.814 168.551 522.793 171.188C521.09 172.726 519.222 174.154 516.914 174.649C515.266 175.033 513.618 175.583 511.86 175.693C510.926 175.418 510.486 174.264 509.882 173.55C508.783 171.902 507.575 170.144 507.465 168.111C507.025 163.331 506.696 158.442 507.575 153.662C508.289 146.136 510.047 138.609 513.838 132.017C515.431 129.27 516.255 125.919 518.782 123.776C520.43 123.117 522.188 122.512 523.946 122.238Z" fill="#FEFEFD" stroke="#FEFEFD" stroke-width="0.219753" stroke-miterlimit="10"/>
<path d="M520.265 127.182C523.562 124.93 527.682 125.149 531.528 124.875C533.066 124.82 534.549 125.369 536.033 125.699C536.692 128.665 537.626 131.577 537.846 134.599C537.901 138.225 537.791 141.851 537.846 145.477C536.967 144.982 536.143 144.268 535.154 144.048C533.945 143.938 532.736 144.268 531.528 144.378C527.517 144.872 523.452 143.993 519.441 143.993C517.079 143.993 514.717 144.543 512.464 145.147C513.233 139.928 516.09 135.423 518.343 130.753C518.947 129.544 519.441 128.281 520.265 127.182Z" fill="#191C2F" stroke="#191C2F" stroke-width="0.219753" stroke-miterlimit="10"/>
<path d="M531.528 144.378C532.736 144.268 533.945 143.938 535.154 144.048C536.143 144.268 536.967 144.982 537.846 145.477C534.879 149.981 532.627 155.036 529.056 159.211C525.869 157.288 522.078 158.167 518.562 158.442C515.815 158.662 512.849 159.87 510.212 158.442C511.036 154.047 510.871 149.377 512.464 145.147C514.717 144.543 517.079 143.993 519.441 143.993C523.452 143.993 527.517 144.872 531.528 144.378Z" fill="#1E2445" stroke="#1E2445" stroke-width="0.219753" stroke-miterlimit="10"/>
<path d="M518.562 158.442C522.078 158.167 525.869 157.288 529.056 159.211C525.594 163.167 522.463 167.562 518.123 170.638C516.585 171.407 514.772 171.627 513.068 171.957C512.135 170.419 510.651 169.045 510.596 167.122C510.377 164.21 510.157 161.354 510.212 158.442C512.849 159.87 515.815 158.662 518.562 158.442Z" fill="#1F2855" stroke="#1F2855" stroke-width="0.219753" stroke-miterlimit="10"/>
<path d="M144.433 155.695C145.751 153.333 146.74 150.696 148.169 148.278C150.861 144.158 154.157 140.422 156.519 136.137C158.277 132.951 160.255 129.984 161.848 126.743C164.265 120.48 167.012 114.272 168.276 107.679C168.386 103.394 168.276 99.1086 168.331 94.8784C173.825 90.3185 180.143 86.8574 185.801 82.4623C188.713 79.8802 191.405 77.1333 194.536 74.8809C195.58 74.2216 196.514 73.0679 197.833 73.1228C199.756 72.8481 201.349 74.1666 202.997 74.9358C205.249 76.1994 207.667 77.1333 209.809 78.6716C211.567 79.8802 210.578 82.3525 210.633 84.1654C210.633 86.1981 209.644 88.5605 211.018 90.2636C211.457 90.8679 211.842 91.4722 212.336 92.0765C213.435 94.1642 216.512 93.8895 217.556 96.142C218.764 109.877 219.808 123.501 221.236 137.181C222.39 137.565 223.544 138.115 224.258 139.214C224.478 141.521 223.928 143.773 223.709 146.026L222.39 150.751C221.291 152.344 220.083 153.882 219.259 155.64C219.588 159.76 220.083 163.826 220.412 167.946C220.797 172.561 219.204 176.846 218.49 181.296C217.94 183.164 218.05 185.417 216.677 186.9C211.732 192.833 207.996 198.327 202.173 203.436C201.239 203.546 200.195 203.821 199.316 203.821C197.448 201.843 196.734 198.712 195.745 196.294C194.921 193.822 194.042 191.57 194.207 188.878C194.262 180.033 194.372 169.924 194.372 161.134C191.68 161.628 187.065 163.716 184.483 164.54C180.088 165.914 174.759 168.88 170.309 170.034C169.485 174.484 169.32 178.989 167.727 183.219C166.243 187.834 165.639 191.68 163.331 195.855C162.178 198.986 160.09 200.964 157.948 203.272C157.343 203.876 156.574 205.139 155.75 205.469C153.388 205.744 152.399 206.678 150.146 206.183C149.102 206.018 147.07 205.744 146.301 205.085C143.993 203.217 141.136 201.733 138.994 199.701C138.829 195.306 138.06 190.965 138.444 186.515C140.148 183.274 143.993 178.714 145.696 175.418C145.751 173.165 145.367 170.913 145.312 168.66C145.312 166.188 142.949 162.947 142.015 160.694L144.433 155.695Z" fill="url(#paint4_linear_46_229)"/>
<path d="M227.335 146.63C227.884 145.367 228.763 143.773 230.081 143.114C231.125 142.4 232.773 142.345 233.378 141.136C234.147 139.708 234.916 136.796 235.41 135.203C234.477 123.666 233.378 112.184 232.444 100.647C232.883 97.4605 234.531 94.6037 235.41 91.5271C236.235 88.5055 238.322 86.0882 240.025 83.4512C241.289 81.5284 242.388 79.221 244.64 78.1771C247.991 76.529 251.233 74.5512 254.639 72.958C257.715 72.5185 260.902 72.9031 264.033 72.7932C267.934 73.1228 271.615 74.716 275.515 75.3204C279.691 75.8148 283.866 76.529 288.041 77.0234C291.722 77.1333 292.931 81.3636 295.952 82.737C298.26 83.5062 300.622 84.0006 302.985 84.7148C304.083 85.0444 304.798 85.9784 305.512 86.8024C308.368 90.5932 311.28 94.329 314.082 98.1197C314.906 99.2185 315.236 100.592 315.675 101.856C316.225 103.668 317.049 105.481 316.994 107.459C316.939 110.756 316.994 114.052 316.939 117.348C314.577 120.754 311.665 123.776 309.302 127.127C307.325 130.094 304.193 131.852 301.446 133.939C299.194 135.533 297.106 137.346 294.689 138.774C289.744 141.301 284.855 143.883 279.856 146.465C278.262 147.125 276.285 150.091 275.515 151.575C276.394 154.377 278.427 156.684 280.625 158.497C295.843 171.133 317.104 184.867 331.717 195.855C338.639 201.074 347.485 205.03 355.011 209.425C355.78 209.919 360.12 212.501 360.835 213.106C360.889 216.512 361.329 215.303 361.054 218.764C360.944 219.643 360.285 223.049 359.736 223.709C354.901 223.324 349.627 223.324 344.738 223.324C335.069 218.764 323.147 212.996 313.423 208.491C306.171 205.085 297.765 201.898 290.349 198.822C288.206 197.833 286.064 196.514 284.031 195.196C276.23 189.867 267 184.702 259.034 179.373C258.045 182.175 257.496 184.922 256.287 187.614C255.133 190.141 254.09 192.833 252.991 195.306C252.441 196.349 251.343 199.701 250.079 199.701C246.618 200.03 244.256 201.733 240.904 200.25C238.762 199.426 236.18 198.767 234.147 197.723C231.949 195.635 229.697 194.042 228.104 191.46C227.994 187.175 228.543 183.109 228.653 178.824C229.697 177.121 231.29 176.297 232.828 175.198C232.828 171.627 233.158 165.749 233.213 162.178C231.62 161.134 229.367 160.859 228.433 159.046C227.225 156.574 225.577 152.948 226.071 150.091L227.335 146.63Z" fill="url(#paint5_linear_46_229)"/>
<path d="M187.559 132.181C188.823 129.709 189.537 126.633 192.119 125.259C192.449 126.907 192.723 128.665 192.833 130.369C192.833 132.236 192.888 134.104 192.943 135.917C192.559 135.972 191.899 135.972 191.57 135.972C190.471 136.027 189.317 136.082 188.219 136.192C187.449 136.247 186.625 136.247 185.856 136.302C186.351 134.928 186.955 133.5 187.559 132.181Z" fill="#FEFEFD" stroke="#FEFEFD" stroke-width="0.219753" stroke-miterlimit="10"/>
<path d="M260.627 101.636C260.462 99.8228 262.44 98.9438 263.978 98.9438C267.824 99.3284 271.45 100.812 275.021 102.24C277.823 103.339 279.086 106.251 280.57 108.668C279.416 109.877 278.317 111.14 277.164 112.294C272.439 115.975 266.451 117.458 260.682 118.557C260.517 112.898 260.517 107.24 260.627 101.636Z" fill="#FEFEFD" stroke="#FEFEFD" stroke-width="0.219753" stroke-miterlimit="10"/>
<path d="M263.759 102.295C267.275 102.735 270.516 104.218 273.812 105.536C275.076 105.976 275.57 107.349 276.34 108.283C275.406 109.217 274.527 110.316 273.263 110.92C270.131 112.294 267.11 113.887 263.759 114.436C263.704 110.371 263.704 106.36 263.759 102.295Z" fill="#040507" stroke="#040507" stroke-width="0.219753" stroke-miterlimit="10"/>
<defs>
<linearGradient id="paint0_linear_46_229" x1="46.8569" y1="70.622" x2="146.58" y2="70.622" gradientUnits="userSpaceOnUse">
<stop stop-color="#F0C429"/>
<stop offset="1" stop-color="#DE4335"/>
</linearGradient>
<linearGradient id="paint1_linear_46_229" x1="323.129" y1="78.8243" x2="410.799" y2="78.8243" gradientUnits="userSpaceOnUse">
<stop stop-color="#F0C429"/>
<stop offset="1" stop-color="#DE4335"/>
</linearGradient>
<linearGradient id="paint2_linear_46_229" x1="415.954" y1="83.8089" x2="485.915" y2="83.8089" gradientUnits="userSpaceOnUse">
<stop stop-color="#F0C429"/>
<stop offset="1" stop-color="#DE4335"/>
</linearGradient>
<linearGradient id="paint3_linear_46_229" x1="476.739" y1="91.041" x2="569.754" y2="91.041" gradientUnits="userSpaceOnUse">
<stop stop-color="#F0C429"/>
<stop offset="1" stop-color="#DE4335"/>
</linearGradient>
<linearGradient id="paint4_linear_46_229" x1="138.347" y1="73.0794" x2="224.3" y2="73.0794" gradientUnits="userSpaceOnUse">
<stop stop-color="#F0C429"/>
<stop offset="1" stop-color="#DE4335"/>
</linearGradient>
<linearGradient id="paint5_linear_46_229" x1="225.989" y1="72.7492" x2="361.147" y2="72.7492" gradientUnits="userSpaceOnUse">
<stop stop-color="#F0C429"/>
<stop offset="1" stop-color="#DE4335"/>
</linearGradient>
</defs>
</svg>
