<svg width="48" height="48" viewBox="0 0 48 48" fill="none" xmlns="http://www.w3.org/2000/svg">
<path fill-rule="evenodd" clip-rule="evenodd" d="M36.966 39.58V39.576L37.002 39.49L43 9.24999V9.15399C43 8.39999 42.72 7.74199 42.116 7.34799C41.586 7.00199 40.976 6.97799 40.548 7.00999C40.1496 7.04603 39.7565 7.12653 39.376 7.24999C39.2137 7.3023 39.0536 7.36102 38.896 7.42599L38.87 7.43599L5.43 20.554L5.42 20.558C5.31834 20.5927 5.21883 20.6334 5.122 20.68C4.88418 20.7868 4.656 20.914 4.44 21.06C4.01 21.356 3.192 22.052 3.33 23.156C3.444 24.072 4.074 24.652 4.5 24.954C4.75145 25.1302 5.02179 25.2778 5.306 25.394L5.37 25.422L5.39 25.428L5.404 25.434L11.256 27.404C11.236 27.77 11.272 28.144 11.37 28.514L14.3 39.632C14.4601 40.238 14.8059 40.7787 15.289 41.1781C15.7722 41.5775 16.3682 41.8155 16.9936 41.8588C17.6189 41.902 18.242 41.7483 18.7755 41.4192C19.309 41.0901 19.726 40.6022 19.968 40.024L24.544 35.132L32.402 41.156L32.514 41.204C33.228 41.516 33.894 41.614 34.504 41.532C35.114 41.448 35.598 41.192 35.962 40.902C36.383 40.5606 36.7186 40.1258 36.942 39.632L36.958 39.598L36.964 39.586L36.966 39.58ZM14.27 27.75C14.2376 27.6266 14.2453 27.4961 14.292 27.3775C14.3388 27.2588 14.4221 27.1581 14.53 27.09L34.372 14.49C34.372 14.49 35.54 13.78 35.498 14.49C35.498 14.49 35.706 14.614 35.08 15.196C34.488 15.75 20.938 28.832 19.566 30.156C19.4897 30.2301 19.4363 30.3245 19.412 30.428L17.2 38.868L14.27 27.748V27.75Z" fill="#E34610"/>
</svg>
